<svg xmlns="http://www.w3.org/2000/svg" xmlns:xlink="http://www.w3.org/1999/xlink" width="320" zoomAndPan="magnify" viewBox="0 0 240 239.999995" height="320" preserveAspectRatio="xMidYMid meet" version="1.0"><defs><clipPath id="06fda2adc4"><path d="M 0 119.984375 C 0 116.054688 0.191406 112.132812 0.578125 108.222656 C 0.964844 104.3125 1.539062 100.429688 2.304688 96.574219 C 3.070312 92.722656 4.027344 88.914062 5.167969 85.152344 C 6.308594 81.394531 7.628906 77.699219 9.132812 74.066406 C 10.636719 70.4375 12.316406 66.890625 14.167969 63.421875 C 16.019531 59.957031 18.039062 56.589844 20.222656 53.324219 C 22.402344 50.054688 24.742188 46.902344 27.234375 43.867188 C 29.726562 40.828125 32.363281 37.921875 35.140625 35.140625 C 37.921875 32.363281 40.828125 29.726562 43.867188 27.234375 C 46.902344 24.742188 50.054688 22.402344 53.324219 20.222656 C 56.589844 18.039062 59.957031 16.019531 63.421875 14.167969 C 66.890625 12.316406 70.4375 10.636719 74.066406 9.132812 C 77.699219 7.628906 81.394531 6.308594 85.152344 5.167969 C 88.914062 4.027344 92.722656 3.070312 96.574219 2.304688 C 100.429688 1.539062 104.3125 0.964844 108.222656 0.578125 C 112.132812 0.191406 116.054688 0 119.984375 0 C 123.914062 0 127.832031 0.191406 131.742188 0.578125 C 135.652344 0.964844 139.535156 1.539062 143.390625 2.304688 C 147.246094 3.070312 151.050781 4.027344 154.8125 5.167969 C 158.570312 6.308594 162.269531 7.628906 165.898438 9.132812 C 169.527344 10.636719 173.078125 12.316406 176.542969 14.167969 C 180.007812 16.019531 183.375 18.039062 186.640625 20.222656 C 189.910156 22.402344 193.0625 24.742188 196.097656 27.234375 C 199.136719 29.726562 202.042969 32.363281 204.824219 35.140625 C 207.601562 37.921875 210.238281 40.828125 212.730469 43.867188 C 215.222656 46.902344 217.5625 50.054688 219.746094 53.324219 C 221.929688 56.589844 223.945312 59.957031 225.796875 63.421875 C 227.648438 66.890625 229.328125 70.4375 230.832031 74.066406 C 232.335938 77.699219 233.660156 81.394531 234.800781 85.152344 C 235.941406 88.914062 236.894531 92.722656 237.660156 96.574219 C 238.425781 100.429688 239.003906 104.3125 239.386719 108.222656 C 239.773438 112.132812 239.964844 116.054688 239.964844 119.984375 C 239.964844 123.914062 239.773438 127.832031 239.386719 131.742188 C 239.003906 135.652344 238.425781 139.535156 237.660156 143.390625 C 236.894531 147.246094 235.941406 151.050781 234.800781 154.8125 C 233.660156 158.570312 232.335938 162.269531 230.832031 165.898438 C 229.328125 169.527344 227.648438 173.078125 225.796875 176.542969 C 223.945312 180.007812 221.929688 183.375 219.746094 186.640625 C 217.5625 189.910156 215.222656 193.0625 212.730469 196.097656 C 210.238281 199.136719 207.601562 202.042969 204.824219 204.824219 C 202.042969 207.601562 199.136719 210.238281 196.097656 212.730469 C 193.0625 215.222656 189.910156 217.5625 186.640625 219.746094 C 183.375 221.929688 180.007812 223.945312 176.542969 225.796875 C 173.078125 227.648438 169.527344 229.328125 165.898438 230.832031 C 162.269531 232.335938 158.570312 233.660156 154.8125 234.800781 C 151.050781 235.941406 147.246094 236.894531 143.390625 237.660156 C 139.535156 238.425781 135.652344 239.003906 131.742188 239.386719 C 127.832031 239.773438 123.914062 239.964844 119.984375 239.964844 C 116.054688 239.964844 112.132812 239.773438 108.222656 239.386719 C 104.3125 239.003906 100.429688 238.425781 96.574219 237.660156 C 92.722656 236.894531 88.914062 235.941406 85.152344 234.800781 C 81.394531 233.660156 77.699219 232.335938 74.066406 230.832031 C 70.4375 229.328125 66.890625 227.648438 63.421875 225.796875 C 59.957031 223.945312 56.589844 221.929688 53.324219 219.746094 C 50.054688 217.5625 46.902344 215.222656 43.867188 212.730469 C 40.828125 210.238281 37.921875 207.601562 35.140625 204.824219 C 32.363281 202.042969 29.726562 199.136719 27.234375 196.097656 C 24.742188 193.0625 22.402344 189.910156 20.222656 186.640625 C 18.039062 183.375 16.019531 180.007812 14.167969 176.542969 C 12.316406 173.078125 10.636719 169.527344 9.132812 165.898438 C 7.628906 162.269531 6.308594 158.570312 5.167969 154.8125 C 4.027344 151.050781 3.070312 147.246094 2.304688 143.390625 C 1.539062 139.535156 0.964844 135.652344 0.578125 131.742188 C 0.191406 127.832031 0 123.914062 0 119.984375 Z M 0 119.984375 " clip-rule="nonzero"/></clipPath><clipPath id="14ab56c5e3"><path d="M 37 0 L 203 0 L 203 240 L 37 240 Z M 37 0 " clip-rule="nonzero"/></clipPath><clipPath id="5c6adc731f"><path d="M 0 119.984375 C 0 116.054688 0.191406 112.132812 0.578125 108.222656 C 0.964844 104.3125 1.539062 100.429688 2.304688 96.574219 C 3.070312 92.722656 4.027344 88.914062 5.167969 85.152344 C 6.308594 81.394531 7.628906 77.699219 9.132812 74.066406 C 10.636719 70.4375 12.316406 66.890625 14.167969 63.421875 C 16.019531 59.957031 18.039062 56.589844 20.222656 53.324219 C 22.402344 50.054688 24.742188 46.902344 27.234375 43.867188 C 29.726562 40.828125 32.363281 37.921875 35.140625 35.140625 C 37.921875 32.363281 40.828125 29.726562 43.867188 27.234375 C 46.902344 24.742188 50.054688 22.402344 53.324219 20.222656 C 56.589844 18.039062 59.957031 16.019531 63.421875 14.167969 C 66.890625 12.316406 70.4375 10.636719 74.066406 9.132812 C 77.699219 7.628906 81.394531 6.308594 85.152344 5.167969 C 88.914062 4.027344 92.722656 3.070312 96.574219 2.304688 C 100.429688 1.539062 104.3125 0.964844 108.222656 0.578125 C 112.132812 0.191406 116.054688 0 119.984375 0 C 123.914062 0 127.832031 0.191406 131.742188 0.578125 C 135.652344 0.964844 139.535156 1.539062 143.390625 2.304688 C 147.246094 3.070312 151.050781 4.027344 154.8125 5.167969 C 158.570312 6.308594 162.269531 7.628906 165.898438 9.132812 C 169.527344 10.636719 173.078125 12.316406 176.542969 14.167969 C 180.007812 16.019531 183.375 18.039062 186.640625 20.222656 C 189.910156 22.402344 193.0625 24.742188 196.097656 27.234375 C 199.136719 29.726562 202.042969 32.363281 204.824219 35.140625 C 207.601562 37.921875 210.238281 40.828125 212.730469 43.867188 C 215.222656 46.902344 217.5625 50.054688 219.746094 53.324219 C 221.929688 56.589844 223.945312 59.957031 225.796875 63.421875 C 227.648438 66.890625 229.328125 70.4375 230.832031 74.066406 C 232.335938 77.699219 233.660156 81.394531 234.800781 85.152344 C 235.941406 88.914062 236.894531 92.722656 237.660156 96.574219 C 238.425781 100.429688 239.003906 104.3125 239.386719 108.222656 C 239.773438 112.132812 239.964844 116.054688 239.964844 119.984375 C 239.964844 123.914062 239.773438 127.832031 239.386719 131.742188 C 239.003906 135.652344 238.425781 139.535156 237.660156 143.390625 C 236.894531 147.246094 235.941406 151.050781 234.800781 154.8125 C 233.660156 158.570312 232.335938 162.269531 230.832031 165.898438 C 229.328125 169.527344 227.648438 173.078125 225.796875 176.542969 C 223.945312 180.007812 221.929688 183.375 219.746094 186.640625 C 217.5625 189.910156 215.222656 193.0625 212.730469 196.097656 C 210.238281 199.136719 207.601562 202.042969 204.824219 204.824219 C 202.042969 207.601562 199.136719 210.238281 196.097656 212.730469 C 193.0625 215.222656 189.910156 217.5625 186.640625 219.746094 C 183.375 221.929688 180.007812 223.945312 176.542969 225.796875 C 173.078125 227.648438 169.527344 229.328125 165.898438 230.832031 C 162.269531 232.335938 158.570312 233.660156 154.8125 234.800781 C 151.050781 235.941406 147.246094 236.894531 143.390625 237.660156 C 139.535156 238.425781 135.652344 239.003906 131.742188 239.386719 C 127.832031 239.773438 123.914062 239.964844 119.984375 239.964844 C 116.054688 239.964844 112.132812 239.773438 108.222656 239.386719 C 104.3125 239.003906 100.429688 238.425781 96.574219 237.660156 C 92.722656 236.894531 88.914062 235.941406 85.152344 234.800781 C 81.394531 233.660156 77.699219 232.335938 74.066406 230.832031 C 70.4375 229.328125 66.890625 227.648438 63.421875 225.796875 C 59.957031 223.945312 56.589844 221.929688 53.324219 219.746094 C 50.054688 217.5625 46.902344 215.222656 43.867188 212.730469 C 40.828125 210.238281 37.921875 207.601562 35.140625 204.824219 C 32.363281 202.042969 29.726562 199.136719 27.234375 196.097656 C 24.742188 193.0625 22.402344 189.910156 20.222656 186.640625 C 18.039062 183.375 16.019531 180.007812 14.167969 176.542969 C 12.316406 173.078125 10.636719 169.527344 9.132812 165.898438 C 7.628906 162.269531 6.308594 158.570312 5.167969 154.8125 C 4.027344 151.050781 3.070312 147.246094 2.304688 143.390625 C 1.539062 139.535156 0.964844 135.652344 0.578125 131.742188 C 0.191406 127.832031 0 123.914062 0 119.984375 Z M 0 119.984375 " clip-rule="nonzero"/></clipPath></defs><g clip-path="url(#06fda2adc4)"><rect x="-24" width="288" fill="#ff0000" y="-23.999999" height="287.999994" fill-opacity="1"/></g><g clip-path="url(#14ab56c5e3)"><g clip-path="url(#5c6adc731f)"><path fill="#ffffff" d="M 37.894531 -5.347656 L 202.070312 -5.347656 L 202.070312 245.316406 L 37.894531 245.316406 Z M 123.0625 189.417969 L 121.523438 159.898438 C 121.441406 158.105469 122.824219 156.585938 124.617188 156.503906 C 124.851562 156.492188 125.085938 156.507812 125.320312 156.546875 L 154.699219 161.710938 L 150.730469 150.765625 C 150.402344 149.871094 150.675781 148.867188 151.417969 148.269531 L 183.601562 122.207031 L 176.351562 118.820312 C 175.339844 118.339844 174.839844 117.183594 175.1875 116.117188 L 181.550781 96.554688 L 163.011719 100.488281 C 161.976562 100.703125 160.933594 100.160156 160.515625 99.1875 L 156.921875 90.738281 L 142.457031 106.265625 C 141.609375 107.15625 140.203125 107.195312 139.3125 106.351562 C 138.761719 105.828125 138.515625 105.0625 138.660156 104.316406 L 145.636719 68.335938 L 134.449219 74.800781 C 133.390625 75.421875 132.027344 75.066406 131.410156 74.007812 C 131.382812 73.964844 131.359375 73.921875 131.339844 73.875 L 119.984375 51.578125 L 108.628906 73.875 C 108.078125 74.976562 106.742188 75.417969 105.644531 74.871094 C 105.601562 74.847656 105.558594 74.824219 105.515625 74.800781 L 94.328125 68.335938 L 101.308594 104.316406 C 101.539062 105.523438 100.75 106.6875 99.542969 106.921875 C 98.800781 107.0625 98.03125 106.816406 97.511719 106.265625 L 83.042969 90.738281 L 79.453125 99.1875 C 79.035156 100.160156 77.992188 100.703125 76.953125 100.488281 L 58.417969 96.554688 L 64.777344 116.117188 C 65.128906 117.183594 64.628906 118.339844 63.613281 118.820312 L 56.363281 122.207031 L 88.550781 148.269531 C 89.289062 148.867188 89.5625 149.871094 89.234375 150.765625 L 85.265625 161.710938 L 114.648438 156.546875 C 116.417969 156.242188 118.097656 157.429688 118.402344 159.199219 C 118.441406 159.429688 118.457031 159.664062 118.445312 159.898438 L 116.90625 189.417969 Z M 123.0625 189.417969 " fill-opacity="1" fill-rule="nonzero"/></g></g></svg>