<svg xmlns="http://www.w3.org/2000/svg" xmlns:xlink="http://www.w3.org/1999/xlink" width="320" zoomAndPan="magnify" viewBox="0 0 240 239.999995" height="320" preserveAspectRatio="xMidYMid meet" version="1.0"><defs><clipPath id="de2c371d68"><path d="M 147 114 L 198.753906 114 L 198.753906 224 L 147 224 Z M 147 114 " clip-rule="nonzero"/></clipPath></defs><path fill="#a6a6a6" d="M 119.972656 96.152344 C 143.101562 96.152344 161.84375 63.449219 161.84375 40.328125 C 161.84375 17.203125 143.101562 0.0078125 119.972656 0.0078125 C 96.851562 0.0078125 78.101562 17.203125 78.101562 40.328125 C 78.101562 63.449219 96.851562 96.152344 119.972656 96.152344 " fill-opacity="1" fill-rule="nonzero"/><path fill="#a6a6a6" d="M 140.515625 174.417969 L 129.042969 181.0625 C 126.714844 182.375 122.664062 183.480469 120.007812 183.449219 L 119.949219 183.449219 C 117.261719 183.480469 113.210938 182.375 110.917969 181.0625 L 99.445312 174.417969 C 95.980469 172.417969 95.746094 167.558594 98.964844 165.148438 C 104.804688 160.742188 112.078125 158.117188 119.980469 158.117188 C 127.84375 158.117188 135.121094 160.742188 140.988281 165.148438 C 144.183594 167.558594 143.96875 172.417969 140.515625 174.417969 Z M 154.222656 187.234375 C 155.890625 186.875 157.625 186.699219 159.378906 186.699219 L 166.472656 186.699219 C 163.316406 163.867188 143.671875 146.195312 119.980469 146.195312 C 96.253906 146.195312 76.644531 163.867188 73.484375 186.699219 L 80.570312 186.699219 C 82.335938 186.699219 84.066406 186.875 85.699219 187.234375 C 86.988281 184.371094 90.558594 183.058594 93.480469 184.730469 L 98.847656 187.828125 C 104.652344 191.199219 108.886719 195.28125 112.824219 199.667969 C 114.585938 201.597656 117.117188 202.824219 119.980469 202.824219 C 122.808594 202.824219 125.371094 201.597656 127.132812 199.667969 C 131.0625 195.28125 135.296875 191.199219 140.363281 188.246094 L 146.441406 184.761719 C 149.363281 183.058594 152.910156 184.402344 154.222656 187.234375 " fill-opacity="1" fill-rule="nonzero"/><path fill="#a6a6a6" d="M 137.140625 223.65625 C 130.589844 227.347656 122.746094 228.988281 114.496094 227.738281 C 110.320312 227.113281 106.355469 225.6875 102.777344 223.65625 C 100.871094 227.296875 98.070312 230.394531 94.699219 232.6875 C 102.007812 237.363281 110.679688 240.082031 119.980469 240.082031 C 129.277344 240.082031 137.949219 237.363281 145.25 232.6875 C 141.855469 230.394531 139.078125 227.296875 137.140625 223.65625 " fill-opacity="1" fill-rule="nonzero"/><path fill="#a6a6a6" d="M 79.921875 200.109375 L 60.035156 200.109375 C 59.800781 197.8125 59.625 195.496094 59.625 193.136719 C 59.625 188.21875 60.21875 183.449219 61.347656 178.886719 C 67.757812 152.449219 91.601562 132.785156 119.980469 132.785156 C 127.515625 132.785156 134.730469 134.148438 141.375 136.710938 L 166 104.671875 C 161.859375 102.941406 157.410156 101.8125 152.824219 101.339844 C 152.253906 101.277344 151.660156 101.25 151.09375 101.1875 C 142.328125 108.753906 131.808594 113.644531 119.980469 113.644531 C 108.117188 113.644531 97.621094 108.753906 88.832031 101.1875 C 88.261719 101.25 87.695312 101.277344 87.132812 101.339844 C 67.285156 103.390625 50.707031 117.726562 46.09375 137.101562 C 42.875 150.570312 41.203125 164.523438 41.203125 178.886719 L 41.203125 208.722656 C 41.203125 216.953125 47.878906 223.625 56.109375 223.625 L 80.570312 223.625 C 87.285156 223.625 92.648438 217.988281 92.289062 211.230469 C 91.960938 204.875 86.269531 200.109375 79.921875 200.109375 " fill-opacity="1" fill-rule="nonzero"/><g clip-path="url(#de2c371d68)"><path fill="#a6a6a6" d="M 193.867188 137.101562 C 191.746094 128.3125 187.191406 120.53125 180.957031 114.507812 L 157.082031 145.597656 C 167.609375 153.820312 175.351562 165.476562 178.601562 178.886719 C 179.738281 183.449219 180.332031 188.21875 180.332031 193.136719 C 180.332031 195.496094 180.179688 197.8125 179.914062 200.109375 L 159.378906 200.109375 C 152.671875 200.109375 147.3125 205.683594 147.667969 212.480469 C 147.996094 218.859375 153.6875 223.625 160.066406 223.625 L 183.847656 223.625 C 192.074219 223.625 198.753906 216.953125 198.753906 208.722656 L 198.753906 178.886719 C 198.753906 164.523438 197.054688 150.570312 193.867188 137.101562 " fill-opacity="1" fill-rule="nonzero"/></g></svg>