<svg xmlns="http://www.w3.org/2000/svg" xmlns:xlink="http://www.w3.org/1999/xlink" width="320" zoomAndPan="magnify" viewBox="0 0 240 239.999995" height="320" preserveAspectRatio="xMidYMid meet" version="1.0"><defs><clipPath id="22189a56f9"><path d="M 0 55.351562 L 240 55.351562 L 240 184.351562 L 0 184.351562 Z M 0 55.351562 " clip-rule="nonzero"/></clipPath></defs><g clip-path="url(#22189a56f9)"><path fill="#a6a6a6" d="M 55.699219 123.816406 L 120 146.253906 L 184.300781 123.816406 L 184.300781 162.667969 C 184.300781 174.804688 155.511719 184.644531 120 184.644531 C 84.488281 184.644531 55.699219 174.804688 55.699219 162.667969 Z M 120 55.351562 L 240 97.21875 L 222.25 103.410156 L 222.25 137.808594 L 222.753906 137.960938 C 225.417969 139.089844 227.285156 141.726562 227.285156 144.796875 C 227.285156 146.847656 226.453125 148.699219 225.113281 150.042969 L 224.992188 150.140625 L 229.140625 174.449219 L 210.589844 174.449219 L 214.738281 150.140625 L 214.617188 150.042969 C 213.273438 148.699219 212.449219 146.847656 212.449219 144.796875 C 212.449219 141.726562 214.316406 139.089844 216.976562 137.960938 L 217.476562 137.808594 L 217.476562 105.078125 L 120 139.085938 L 0 97.21875 Z M 120 55.351562 " fill-opacity="1" fill-rule="evenodd"/></g></svg>