<svg xmlns="http://www.w3.org/2000/svg" xmlns:xlink="http://www.w3.org/1999/xlink" width="320" zoomAndPan="magnify" viewBox="0 0 240 239.999995" height="320" preserveAspectRatio="xMidYMid meet" version="1.0"><defs><clipPath id="07aaad08e9"><path d="M 0 0 L 240 0 L 240 219.75 L 0 219.75 Z M 0 0 " clip-rule="nonzero"/></clipPath></defs><g clip-path="url(#07aaad08e9)"><path fill="#a6a6a6" d="M 209.289062 54.082031 C 203.316406 54.082031 197.753906 55.824219 193.03125 58.789062 L 178.085938 38.074219 C 182.535156 34.160156 185.402344 28.492188 185.402344 22.117188 C 185.402344 10.351562 175.828125 0.777344 164.0625 0.777344 C 152.296875 0.777344 142.722656 10.351562 142.722656 22.117188 C 142.722656 30.65625 147.796875 37.984375 155.054688 41.390625 L 149.117188 58.105469 L 122.65625 46.757812 C 123.8125 43.492188 124.429688 40.078125 124.429688 36.566406 C 124.429688 19.636719 110.652344 5.859375 93.71875 5.859375 C 76.785156 5.859375 63.007812 19.636719 63.007812 36.566406 C 63.007812 40.769531 63.859375 44.773438 65.394531 48.421875 L 39.378906 61.398438 C 35.605469 55.378906 28.957031 51.332031 21.339844 51.332031 C 9.574219 51.332031 0 60.90625 0 72.671875 C 0 84.441406 9.574219 94.011719 21.339844 94.011719 C 22.078125 94.011719 22.777344 93.867188 23.5 93.792969 L 28.484375 118.6875 C 15.433594 122.226562 5.789062 134.144531 5.789062 148.300781 C 5.789062 165.234375 19.5625 179.011719 36.496094 179.011719 C 45.175781 179.011719 53.011719 175.375 58.601562 169.566406 L 77.875 185.785156 C 75.488281 189.226562 74.074219 193.390625 74.074219 197.886719 C 74.074219 209.652344 83.648438 219.226562 95.414062 219.226562 C 107.179688 219.226562 116.75 209.652344 116.75 197.886719 C 116.75 189.875 112.261719 182.964844 105.714844 179.316406 L 114.128906 160.003906 C 118.78125 161.773438 123.804688 162.785156 129.070312 162.785156 C 152.328125 162.785156 171.253906 143.863281 171.253906 120.601562 C 171.253906 115.40625 170.261719 110.445312 168.539062 105.847656 L 182.539062 99.824219 C 187.027344 107.78125 194.953125 113.523438 204.289062 115.058594 L 201.972656 138.8125 C 201.960938 138.8125 201.953125 138.808594 201.941406 138.808594 C 190.171875 138.808594 180.601562 148.382812 180.601562 160.148438 C 180.601562 171.914062 190.171875 181.488281 201.941406 181.488281 C 213.707031 181.488281 223.277344 171.914062 223.277344 160.148438 C 223.277344 149.78125 215.839844 141.136719 206.023438 139.222656 L 208.34375 115.457031 C 208.660156 115.464844 208.96875 115.503906 209.289062 115.503906 C 226.222656 115.503906 240 101.726562 240 84.792969 C 240 67.859375 226.222656 54.082031 209.289062 54.082031 Z M 191.925781 174.167969 C 193.667969 172.167969 196.246094 170.328125 197.960938 169.980469 C 199.605469 169.65625 200.859375 168.484375 201.226562 166.957031 C 201.347656 166.472656 201.371094 165.828125 201.410156 164.574219 C 201.429688 163.929688 201.140625 163.308594 200.628906 162.910156 C 199.554688 162.074219 198.617188 160.722656 198.117188 159.300781 C 197.945312 158.804688 197.59375 158.414062 197.15625 158.179688 C 197.144531 158.113281 197.132812 158.046875 197.121094 157.984375 C 197.476562 157.601562 197.683594 157.085938 197.683594 156.546875 C 197.675781 154.207031 197.671875 152.183594 198.53125 151.320312 C 199.09375 150.753906 200.230469 150.46875 201.96875 150.464844 C 203.644531 150.46875 204.78125 150.753906 205.34375 151.320312 C 206.203125 152.183594 206.199219 154.207031 206.191406 156.59375 C 206.191406 157.136719 206.402344 157.632812 206.75 158.003906 C 206.742188 158.058594 206.730469 158.121094 206.722656 158.179688 C 206.28125 158.410156 205.933594 158.804688 205.757812 159.300781 C 205.257812 160.722656 204.320312 162.074219 203.246094 162.910156 C 202.734375 163.308594 202.453125 164.085938 202.46875 164.734375 C 202.503906 165.828125 202.527344 166.472656 202.648438 166.929688 C 203.023438 168.488281 204.28125 169.65625 205.914062 169.980469 C 207.628906 170.328125 210.203125 172.167969 211.953125 174.167969 C 209.121094 176.195312 205.679688 177.421875 201.941406 177.421875 C 198.199219 177.421875 194.757812 176.195312 191.925781 174.167969 Z M 219.207031 160.148438 C 219.207031 164.453125 217.570312 168.34375 214.957031 171.371094 C 212.855469 169.019531 209.554688 166.570312 206.605469 166.007812 C 206.582031 165.867188 206.566406 165.667969 206.558594 165.414062 C 207.667969 164.34375 208.609375 162.980469 209.257812 161.5 C 210.007812 160.953125 210.570312 159.992188 210.792969 158.757812 C 210.988281 157.5625 210.773438 156.480469 210.257812 155.714844 C 210.25 152.921875 210.085938 150.320312 208.222656 148.453125 C 206.855469 147.074219 204.808594 146.402344 201.898438 146.398438 C 199.066406 146.402344 197.023438 147.074219 195.652344 148.453125 C 193.796875 150.3125 193.625 152.898438 193.617188 155.714844 C 193.097656 156.484375 192.886719 157.574219 193.089844 158.792969 C 193.308594 160.007812 193.867188 160.964844 194.617188 161.507812 C 195.265625 162.980469 196.199219 164.332031 197.304688 165.398438 C 197.28125 165.644531 197.242188 165.855469 197.160156 165.992188 C 194.304688 166.570312 191.019531 169.019531 188.917969 171.371094 C 186.304688 168.34375 184.667969 164.453125 184.667969 160.148438 C 184.667969 150.625 192.417969 142.878906 201.941406 142.878906 C 211.460938 142.878906 219.207031 150.625 219.207031 160.148438 Z M 162.753906 24.882812 C 161.683594 24.042969 160.746094 22.691406 160.242188 21.265625 C 160.066406 20.769531 159.714844 20.382812 159.28125 20.148438 C 159.269531 20.082031 159.253906 20.015625 159.242188 19.953125 C 159.597656 19.570312 159.808594 19.058594 159.808594 18.515625 C 159.800781 16.175781 159.796875 14.152344 160.652344 13.289062 C 161.21875 12.726562 162.355469 12.4375 164.089844 12.433594 C 165.769531 12.4375 166.90625 12.726562 167.472656 13.289062 C 168.328125 14.152344 168.324219 16.175781 168.316406 18.5625 C 168.316406 19.101562 168.527344 19.601562 168.878906 19.96875 C 168.863281 20.027344 168.855469 20.089844 168.84375 20.144531 C 168.40625 20.378906 168.054688 20.773438 167.878906 21.269531 C 167.378906 22.695312 166.441406 24.042969 165.371094 24.882812 C 164.863281 25.277344 164.574219 25.890625 164.589844 26.535156 C 164.621094 27.828125 164.65625 28.441406 164.769531 28.902344 C 165.148438 30.449219 166.398438 31.621094 168.035156 31.953125 C 169.75 32.296875 172.328125 34.136719 174.074219 36.136719 C 171.242188 38.164062 167.800781 39.386719 164.0625 39.386719 C 160.324219 39.386719 156.882812 38.164062 154.050781 36.136719 C 155.796875 34.136719 158.375 32.296875 160.09375 31.953125 C 161.726562 31.621094 162.976562 30.449219 163.355469 28.902344 C 163.46875 28.441406 163.503906 27.828125 163.535156 26.535156 C 163.550781 25.890625 163.261719 25.277344 162.753906 24.882812 Z M 146.789062 22.117188 C 146.789062 12.59375 154.539062 4.84375 164.0625 4.84375 C 173.585938 4.84375 181.335938 12.59375 181.335938 22.117188 C 181.335938 26.421875 179.695312 30.3125 177.082031 33.339844 C 174.976562 30.984375 171.675781 28.539062 168.730469 27.988281 C 168.707031 27.84375 168.695312 27.632812 168.683594 27.382812 C 169.789062 26.3125 170.730469 24.949219 171.378906 23.46875 C 172.128906 22.925781 172.695312 21.964844 172.917969 20.738281 C 173.117188 19.535156 172.90625 18.449219 172.386719 17.679688 C 172.375 14.886719 172.214844 12.292969 170.351562 10.421875 C 168.980469 9.042969 166.933594 8.371094 164.027344 8.367188 C 161.191406 8.371094 159.144531 9.042969 157.773438 10.421875 C 155.917969 12.285156 155.75 14.867188 155.738281 17.683594 C 155.21875 18.453125 155.007812 19.546875 155.210938 20.761719 C 155.429688 21.976562 155.996094 22.9375 156.746094 23.476562 C 157.394531 24.949219 158.328125 26.300781 159.425781 27.367188 C 159.402344 27.617188 159.363281 27.828125 159.289062 27.964844 C 156.4375 28.535156 153.148438 30.984375 151.042969 33.339844 C 148.429688 30.3125 146.789062 26.421875 146.789062 22.117188 Z M 158.886719 42.746094 C 160.554688 43.167969 162.269531 43.457031 164.0625 43.457031 C 167.988281 43.457031 171.625 42.316406 174.789062 40.457031 L 189.722656 61.148438 C 186.203125 64.066406 183.371094 67.761719 181.429688 71.957031 L 152.863281 59.707031 Z M 129.070312 78.417969 C 105.808594 78.417969 86.886719 97.339844 86.886719 120.601562 C 86.886719 124.09375 87.359375 127.46875 88.164062 130.71875 L 65.234375 137.578125 C 62.785156 131.03125 58.171875 125.550781 52.257812 121.992188 L 81.566406 64.757812 C 85.296875 66.371094 89.402344 67.277344 93.71875 67.277344 C 105.332031 67.277344 115.785156 60.71875 121.007812 50.480469 L 147.753906 61.945312 L 141.257812 80.230469 C 137.394531 79.058594 133.308594 78.417969 129.070312 78.417969 Z M 91.164062 41.449219 C 89.433594 40.09375 87.914062 37.917969 87.113281 35.632812 C 86.890625 35 86.378906 34.535156 85.761719 34.355469 C 85.691406 34.210938 85.605469 33.988281 85.550781 33.695312 C 85.5 33.375 85.503906 33.125 85.523438 32.957031 C 86.066406 32.566406 86.414062 31.898438 86.414062 31.207031 C 86.40625 28.066406 86.398438 25.359375 87.320312 23.640625 C 87.921875 22.507812 89.191406 21.207031 93.761719 21.199219 C 98.246094 21.207031 99.515625 22.507812 100.117188 23.640625 C 101.039062 25.359375 101.03125 28.066406 101.023438 31.292969 C 101.023438 31.984375 101.371094 32.609375 101.914062 32.976562 C 101.933594 33.140625 101.9375 33.375 101.890625 33.660156 C 101.832031 33.972656 101.746094 34.207031 101.675781 34.355469 C 101.058594 34.535156 100.546875 35 100.324219 35.632812 C 99.523438 37.917969 98.003906 40.09375 96.273438 41.449219 C 95.765625 41.847656 95.472656 42.519531 95.492188 43.164062 C 95.535156 44.769531 95.570312 45.785156 95.726562 46.40625 C 96.195312 48.339844 97.765625 49.796875 99.816406 50.203125 C 102.773438 50.800781 107.378906 54.117188 110.058594 57.535156 C 105.472656 61.105469 99.785156 63.207031 93.71875 63.207031 C 87.550781 63.207031 81.882812 61.082031 77.363281 57.554688 C 80.039062 54.128906 84.65625 50.800781 87.617188 50.203125 C 89.671875 49.796875 91.238281 48.339844 91.707031 46.421875 C 91.867188 45.785156 91.902344 44.769531 91.945312 43.109375 C 91.960938 42.460938 91.671875 41.847656 91.164062 41.449219 Z M 93.71875 9.925781 C 108.410156 9.925781 120.363281 21.878906 120.363281 36.566406 C 120.363281 40.210938 119.636719 43.746094 118.210938 47.070312 C 116.957031 49.996094 115.171875 52.5625 113.066406 54.796875 C 109.726562 50.636719 104.5 47 100.613281 46.214844 C 100.433594 46.179688 99.816406 46.015625 99.679688 45.453125 C 99.621094 45.15625 99.597656 44.613281 99.582031 43.972656 C 101.339844 42.371094 102.828125 40.238281 103.800781 37.917969 C 104.8125 37.292969 105.597656 36.023438 105.898438 34.351562 C 106.175781 32.664062 105.855469 31.203125 105.089844 30.28125 C 105.089844 27.097656 104.984375 24.113281 103.707031 21.722656 C 102.058594 18.640625 98.8125 17.136719 93.667969 17.128906 C 88.625 17.136719 85.375 18.640625 83.726562 21.722656 C 82.460938 24.097656 82.347656 27.058594 82.34375 30.285156 C 81.582031 31.207031 81.265625 32.679688 81.542969 34.386719 C 81.84375 36.035156 82.625 37.300781 83.636719 37.921875 C 84.609375 40.238281 86.09375 42.375 87.855469 43.972656 C 87.839844 44.601562 87.816406 45.152344 87.757812 45.445312 C 87.621094 46.015625 87.003906 46.179688 86.816406 46.214844 C 82.929688 47.003906 77.699219 50.644531 74.355469 54.8125 C 69.855469 50.039062 67.074219 43.628906 67.074219 36.566406 C 67.074219 21.878906 79.027344 9.925781 93.71875 9.925781 Z M 4.066406 72.671875 C 4.066406 63.148438 11.816406 55.402344 21.339844 55.402344 C 30.863281 55.402344 38.609375 63.148438 38.609375 72.671875 C 38.609375 76.976562 36.96875 80.867188 34.359375 83.890625 C 32.253906 81.542969 28.957031 79.097656 26.007812 78.539062 C 25.984375 78.398438 25.972656 78.1875 25.960938 77.9375 C 27.074219 76.867188 28.011719 75.503906 28.660156 74.023438 C 29.40625 73.476562 29.972656 72.515625 30.195312 71.28125 C 30.394531 70.058594 30.183594 68.976562 29.664062 68.214844 C 29.632812 64.054688 29.136719 58.933594 21.300781 58.921875 C 17.636719 58.925781 15.257812 60.054688 14.027344 62.367188 C 13.125 64.054688 13.027344 66.066406 13.019531 68.238281 C 12.5 69.011719 12.285156 70.101562 12.488281 71.316406 C 12.707031 72.53125 13.269531 73.484375 14.019531 74.03125 C 14.667969 75.5 15.601562 76.855469 16.703125 77.921875 C 16.679688 78.171875 16.640625 78.386719 16.5625 78.515625 C 13.710938 79.09375 10.421875 81.542969 8.320312 83.894531 C 5.707031 80.867188 4.066406 76.976562 4.066406 72.671875 Z M 11.328125 86.691406 C 13.074219 84.691406 15.648438 82.851562 17.359375 82.503906 C 19 82.175781 20.253906 81.007812 20.632812 79.457031 C 20.75 78.984375 20.773438 78.34375 20.8125 77.097656 C 20.832031 76.449219 20.542969 75.832031 20.027344 75.433594 C 18.957031 74.59375 18.019531 73.246094 17.519531 71.824219 C 17.34375 71.328125 16.996094 70.9375 16.558594 70.703125 C 16.546875 70.640625 16.535156 70.570312 16.519531 70.507812 C 16.875 70.125 17.085938 69.609375 17.085938 69.066406 C 17.082031 67.128906 17.074219 65.292969 17.613281 64.28125 C 17.804688 63.929688 18.300781 62.996094 21.367188 62.988281 C 25.453125 62.996094 25.601562 64.152344 25.59375 69.117188 C 25.59375 69.65625 25.804688 70.152344 26.15625 70.523438 C 26.144531 70.582031 26.128906 70.644531 26.121094 70.703125 C 25.683594 70.933594 25.332031 71.328125 25.15625 71.824219 C 24.65625 73.25 23.71875 74.597656 22.648438 75.433594 C 22.136719 75.832031 21.847656 76.492188 21.867188 77.140625 C 21.898438 78.292969 21.929688 78.96875 22.046875 79.453125 C 22.425781 81.007812 23.675781 82.175781 25.3125 82.503906 C 27.027344 82.851562 29.605469 84.691406 31.351562 86.691406 C 28.519531 88.71875 25.078125 89.941406 21.339844 89.941406 C 17.601562 89.941406 14.160156 88.71875 11.328125 86.691406 Z M 27.488281 93 C 36.246094 90.339844 42.675781 82.289062 42.675781 72.671875 C 42.675781 69.976562 42.121094 67.414062 41.203125 65.035156 L 67.238281 52.046875 C 69.851562 56.496094 73.542969 60.21875 77.957031 62.875 L 48.648438 120.109375 C 44.917969 118.496094 40.8125 117.589844 36.496094 117.589844 C 35.128906 117.589844 33.792969 117.710938 32.472656 117.886719 Z M 9.855469 148.300781 C 9.855469 133.609375 21.804688 121.660156 36.496094 121.660156 C 51.183594 121.660156 63.136719 133.609375 63.136719 148.300781 C 63.136719 155.363281 60.359375 161.773438 55.859375 166.546875 C 52.515625 162.378906 47.285156 158.734375 43.394531 157.953125 C 43.207031 157.914062 42.59375 157.75 42.457031 157.183594 C 42.398438 156.890625 42.375 156.34375 42.359375 155.707031 C 44.117188 154.105469 45.609375 151.972656 46.578125 149.652344 C 47.589844 149.027344 48.371094 147.757812 48.675781 146.085938 C 48.949219 144.398438 48.628906 142.941406 47.867188 142.019531 C 47.867188 138.832031 47.761719 135.847656 46.484375 133.457031 C 44.835938 130.375 41.585938 128.871094 36.441406 128.863281 C 31.402344 128.871094 28.152344 130.375 26.503906 133.457031 C 25.238281 135.832031 25.125 138.792969 25.121094 142.019531 C 24.359375 142.945312 24.042969 144.414062 24.320312 146.121094 C 24.621094 147.769531 25.398438 149.03125 26.414062 149.652344 C 27.386719 151.972656 28.871094 154.105469 30.632812 155.707031 C 30.617188 156.332031 30.59375 156.886719 30.535156 157.179688 C 30.398438 157.75 29.78125 157.914062 29.59375 157.953125 C 25.707031 158.734375 20.476562 162.378906 17.132812 166.542969 C 12.636719 161.769531 9.855469 155.359375 9.855469 148.300781 Z M 20.140625 169.285156 C 22.816406 165.863281 27.433594 162.539062 30.398438 161.941406 C 32.449219 161.527344 34.015625 160.070312 34.484375 158.15625 C 34.644531 157.519531 34.679688 156.503906 34.722656 154.839844 C 34.738281 154.195312 34.449219 153.582031 33.941406 153.183594 C 32.207031 151.828125 30.691406 149.652344 29.890625 147.367188 C 29.667969 146.734375 29.152344 146.269531 28.539062 146.089844 C 28.464844 145.945312 28.382812 145.71875 28.328125 145.429688 C 28.277344 145.105469 28.28125 144.855469 28.300781 144.691406 C 28.84375 144.296875 29.191406 143.632812 29.191406 142.941406 C 29.183594 139.800781 29.171875 137.09375 30.09375 135.371094 C 30.699219 134.238281 31.964844 132.9375 36.539062 132.929688 C 41.023438 132.9375 42.289062 134.238281 42.894531 135.371094 C 43.816406 137.09375 43.808594 139.800781 43.800781 143.023438 C 43.800781 143.71875 44.144531 144.34375 44.691406 144.710938 C 44.710938 144.871094 44.714844 145.105469 44.667969 145.394531 C 44.609375 145.707031 44.523438 145.941406 44.449219 146.089844 C 43.835938 146.269531 43.324219 146.734375 43.101562 147.367188 C 42.296875 149.652344 40.78125 151.828125 39.050781 153.183594 C 38.539062 153.582031 38.25 154.253906 38.269531 154.898438 C 38.308594 156.503906 38.347656 157.519531 38.503906 158.140625 C 38.972656 160.070312 40.539062 161.527344 42.59375 161.941406 C 45.554688 162.539062 50.171875 165.863281 52.847656 169.285156 C 48.328125 172.816406 42.660156 174.941406 36.496094 174.941406 C 30.328125 174.941406 24.660156 172.816406 20.140625 169.285156 Z M 85.402344 211.90625 C 87.148438 209.90625 89.722656 208.066406 91.433594 207.722656 C 93.078125 207.394531 94.332031 206.222656 94.699219 204.695312 C 94.824219 204.210938 94.847656 203.566406 94.886719 202.3125 C 94.90625 201.667969 94.617188 201.046875 94.105469 200.648438 C 93.03125 199.8125 92.09375 198.464844 91.59375 197.039062 C 91.417969 196.542969 91.070312 196.152344 90.632812 195.917969 C 90.621094 195.851562 90.609375 195.785156 90.597656 195.722656 C 90.949219 195.339844 91.160156 194.824219 91.160156 194.285156 C 91.152344 191.945312 91.148438 189.921875 92.007812 189.058594 C 92.570312 188.492188 93.707031 188.207031 95.441406 188.203125 C 97.117188 188.207031 98.253906 188.492188 98.820312 189.058594 C 99.675781 189.921875 99.671875 191.945312 99.664062 194.332031 C 99.664062 194.871094 99.875 195.371094 100.226562 195.738281 C 100.21875 195.796875 100.207031 195.859375 100.191406 195.917969 C 99.757812 196.152344 99.40625 196.542969 99.230469 197.039062 C 98.730469 198.464844 97.792969 199.8125 96.722656 200.648438 C 96.207031 201.046875 95.925781 201.824219 95.941406 202.472656 C 95.980469 203.566406 96.003906 204.210938 96.117188 204.660156 C 96.492188 206.222656 97.746094 207.394531 99.386719 207.722656 C 101.101562 208.066406 103.679688 209.90625 105.425781 211.90625 C 102.597656 213.933594 99.15625 215.160156 95.414062 215.160156 C 91.675781 215.160156 88.234375 213.933594 85.402344 211.90625 Z M 112.683594 197.886719 C 112.683594 202.191406 111.042969 206.082031 108.433594 209.109375 C 106.328125 206.757812 103.027344 204.308594 100.078125 203.746094 C 100.058594 203.605469 100.042969 203.40625 100.035156 203.152344 C 101.144531 202.082031 102.085938 200.722656 102.730469 199.246094 C 103.484375 198.699219 104.046875 197.734375 104.265625 196.507812 C 104.464844 195.304688 104.253906 194.21875 103.734375 193.449219 C 103.726562 190.65625 103.5625 188.058594 101.699219 186.191406 C 100.328125 184.8125 98.28125 184.140625 95.375 184.136719 C 92.542969 184.140625 90.496094 184.8125 89.125 186.191406 C 87.269531 188.050781 87.101562 190.636719 87.09375 193.453125 C 86.570312 194.222656 86.359375 195.3125 86.5625 196.53125 C 86.78125 197.746094 87.34375 198.703125 88.097656 199.246094 C 88.742188 200.71875 89.675781 202.070312 90.777344 203.136719 C 90.753906 203.386719 90.714844 203.59375 90.636719 203.730469 C 87.78125 204.308594 84.496094 206.757812 82.394531 209.109375 C 79.78125 206.082031 78.140625 202.191406 78.140625 197.886719 C 78.140625 188.363281 85.890625 180.617188 95.414062 180.617188 C 104.9375 180.617188 112.683594 188.363281 112.683594 197.886719 Z M 101.988281 177.691406 C 99.90625 177.011719 97.722656 176.550781 95.414062 176.550781 C 89.605469 176.550781 84.34375 178.894531 80.492188 182.671875 L 61.214844 166.445312 C 64.960938 161.355469 67.207031 155.09375 67.207031 148.300781 C 67.207031 145.949219 66.917969 143.671875 66.414062 141.472656 L 89.328125 134.617188 C 93.007812 145.007812 100.625 153.523438 110.402344 158.375 Z M 104.949219 150.089844 C 105.03125 150.011719 105.132812 149.972656 105.203125 149.878906 C 109.054688 144.734375 115.859375 139.808594 120.367188 138.898438 C 122.925781 138.386719 124.882812 136.582031 125.464844 134.195312 C 125.660156 133.410156 125.707031 132.070312 125.777344 129.738281 C 125.792969 129.09375 125.5 128.472656 124.992188 128.078125 C 122.445312 126.085938 120.226562 122.90625 119.054688 119.5625 C 118.796875 118.832031 118.152344 118.324219 117.410156 118.222656 C 117.234375 117.984375 116.96875 117.457031 116.828125 116.710938 C 116.703125 115.921875 116.78125 115.328125 116.871094 115.046875 C 117.5625 114.691406 118.027344 113.910156 118.027344 113.109375 C 118.015625 108.601562 118.003906 104.710938 119.386719 102.117188 C 120.265625 100.46875 122.214844 98.28125 129.132812 98.269531 C 135.914062 98.28125 137.867188 100.46875 138.746094 102.113281 C 140.132812 104.703125 140.121094 108.59375 140.113281 113.214844 C 140.113281 114.015625 140.578125 114.726562 141.273438 115.058594 C 141.355469 115.339844 141.433594 115.921875 141.308594 116.679688 C 141.167969 117.453125 140.898438 117.984375 140.726562 118.222656 C 139.984375 118.324219 139.34375 118.832031 139.082031 119.5625 C 137.910156 122.90625 135.691406 126.085938 133.144531 128.078125 C 132.636719 128.472656 132.347656 129.089844 132.363281 129.734375 C 132.421875 131.972656 132.472656 133.390625 132.671875 134.1875 C 133.257812 136.582031 135.210938 138.386719 137.765625 138.898438 C 142.269531 139.808594 149.078125 144.734375 152.9375 149.878906 C 153.003906 149.96875 153.097656 150.019531 153.175781 150.09375 C 146.605469 155.480469 138.210938 158.71875 129.070312 158.71875 C 119.925781 158.71875 111.527344 155.476562 104.949219 150.089844 Z M 156.148438 147.386719 C 151.695312 141.480469 143.984375 136.003906 138.5625 134.910156 C 137.558594 134.707031 136.832031 134.078125 136.621094 133.214844 C 136.542969 132.863281 136.488281 131.679688 136.457031 130.613281 C 139.023438 128.367188 141.179688 125.285156 142.539062 121.921875 C 143.867188 121.238281 144.917969 119.585938 145.316406 117.371094 C 145.691406 115.117188 145.238281 113.203125 144.179688 112.117188 C 144.183594 107.644531 144.074219 103.449219 142.335938 100.195312 C 140.183594 96.171875 135.871094 94.210938 128.992188 94.199219 C 122.265625 94.210938 117.945312 96.175781 115.796875 100.203125 C 114.074219 103.4375 113.953125 107.59375 113.953125 112.121094 C 112.90625 113.207031 112.453125 115.125 112.820312 117.402344 C 113.222656 119.597656 114.273438 121.238281 115.597656 121.921875 C 116.957031 125.285156 119.113281 128.367188 121.679688 130.613281 C 121.644531 131.675781 121.597656 132.871094 121.515625 133.222656 C 121.308594 134.078125 120.578125 134.707031 119.566406 134.910156 C 114.144531 136.003906 106.441406 141.480469 101.988281 147.386719 C 95.175781 140.496094 90.953125 131.035156 90.953125 120.601562 C 90.953125 99.585938 108.050781 82.484375 129.070312 82.484375 C 150.085938 82.484375 167.183594 99.585938 167.183594 120.601562 C 167.183594 131.035156 162.964844 140.496094 156.148438 147.386719 Z M 166.925781 102.109375 C 162.398438 92.882812 154.632812 85.53125 145.085938 81.59375 L 151.496094 63.550781 L 179.945312 75.746094 C 179.0625 78.605469 178.582031 81.644531 178.582031 84.792969 C 178.582031 88.808594 179.378906 92.632812 180.785156 96.152344 Z M 192.9375 105.78125 C 195.609375 102.359375 200.226562 99.03125 203.195312 98.433594 C 205.25 98.019531 206.8125 96.5625 207.28125 94.632812 C 207.4375 94 207.476562 92.964844 207.519531 91.332031 C 207.535156 90.6875 207.246094 90.074219 206.738281 89.675781 C 205.007812 88.320312 203.488281 86.144531 202.6875 83.859375 C 202.464844 83.226562 201.953125 82.757812 201.335938 82.582031 C 201.265625 82.433594 201.175781 82.214844 201.125 81.914062 C 201.074219 81.597656 201.078125 81.347656 201.097656 81.1875 C 201.636719 80.792969 201.984375 80.132812 201.984375 79.441406 C 201.976562 76.300781 201.96875 73.589844 202.890625 71.867188 C 203.492188 70.734375 204.761719 69.429688 209.335938 69.421875 C 213.820312 69.429688 215.089844 70.734375 215.691406 71.867188 C 216.613281 73.589844 216.605469 76.300781 216.597656 79.515625 C 216.597656 80.207031 216.945312 80.832031 217.488281 81.203125 C 217.503906 81.363281 217.507812 81.597656 217.460938 81.890625 C 217.40625 82.203125 217.316406 82.433594 217.246094 82.582031 C 216.628906 82.761719 216.117188 83.226562 215.894531 83.859375 C 215.09375 86.144531 213.574219 88.320312 211.84375 89.675781 C 211.335938 90.074219 211.042969 90.6875 211.0625 91.332031 C 211.105469 92.964844 211.144531 94 211.300781 94.632812 C 211.769531 96.5625 213.332031 98.019531 215.386719 98.433594 C 218.355469 99.03125 222.972656 102.359375 225.644531 105.777344 C 221.125 109.308594 215.457031 111.4375 209.289062 111.4375 C 203.121094 111.4375 197.453125 109.3125 192.9375 105.78125 Z M 228.652344 103.035156 C 225.308594 98.871094 220.082031 95.226562 216.1875 94.445312 C 216.003906 94.40625 215.386719 94.242188 215.25 93.6875 C 215.195312 93.394531 215.171875 92.832031 215.152344 92.199219 C 216.910156 90.597656 218.398438 88.46875 219.371094 86.148438 C 220.386719 85.523438 221.171875 84.253906 221.46875 82.582031 C 221.75 80.894531 221.433594 79.433594 220.667969 78.507812 C 220.667969 75.324219 220.558594 72.339844 219.285156 69.953125 C 217.636719 66.867188 214.386719 65.363281 209.238281 65.355469 C 204.195312 65.363281 200.945312 66.867188 199.296875 69.953125 C 198.03125 72.328125 197.917969 75.289062 197.914062 78.511719 C 197.152344 79.4375 196.835938 80.902344 197.117188 82.605469 C 197.414062 84.261719 198.195312 85.527344 199.210938 86.148438 C 200.183594 88.46875 201.667969 90.597656 203.429688 92.199219 C 203.410156 92.832031 203.390625 93.386719 203.335938 93.671875 C 203.195312 94.242188 202.578125 94.40625 202.394531 94.445312 C 198.5 95.226562 193.269531 98.871094 189.929688 103.039062 C 185.429688 98.265625 182.648438 91.855469 182.648438 84.792969 C 182.648438 70.101562 194.597656 58.152344 209.289062 58.152344 C 223.980469 58.152344 235.933594 70.101562 235.933594 84.792969 C 235.933594 91.851562 233.152344 98.261719 228.652344 103.035156 Z M 228.652344 103.035156 " fill-opacity="1" fill-rule="nonzero"/></g></svg>