<svg xmlns="http://www.w3.org/2000/svg" xmlns:xlink="http://www.w3.org/1999/xlink" width="320" zoomAndPan="magnify" viewBox="0 0 240 239.999995" height="320" preserveAspectRatio="xMidYMid meet" version="1.0"><defs><clipPath id="097dea4f34"><path d="M 16.351562 0 L 213 0 L 213 240 L 16.351562 240 Z M 16.351562 0 " clip-rule="nonzero"/></clipPath><clipPath id="f97e07ccaf"><path d="M 143 152 L 223.351562 152 L 223.351562 217 L 143 217 Z M 143 152 " clip-rule="nonzero"/></clipPath></defs><path fill="#a6a6a6" d="M 145.445312 111.363281 L 52.730469 111.363281 C 49.851562 111.363281 47.519531 113.695312 47.519531 116.570312 C 47.519531 119.449219 49.851562 121.777344 52.730469 121.777344 L 145.445312 121.777344 C 148.324219 121.777344 150.65625 119.449219 150.65625 116.570312 C 150.65625 113.695312 148.324219 111.363281 145.445312 111.363281 Z M 145.445312 111.363281 " fill-opacity="1" fill-rule="nonzero"/><path fill="#a6a6a6" d="M 117.34375 146.296875 L 52.828125 146.296875 C 49.953125 146.296875 47.621094 148.625 47.621094 151.503906 C 47.621094 154.382812 49.953125 156.710938 52.828125 156.710938 L 117.34375 156.710938 C 120.21875 156.710938 122.550781 154.382812 122.550781 151.503906 C 122.550781 148.625 120.21875 146.296875 117.34375 146.296875 Z M 117.34375 146.296875 " fill-opacity="1" fill-rule="nonzero"/><path fill="#a6a6a6" d="M 145.546875 79.960938 L 52.828125 79.960938 C 49.953125 79.960938 47.621094 82.289062 47.621094 85.167969 C 47.621094 88.046875 49.953125 90.375 52.828125 90.375 L 145.546875 90.375 C 148.425781 90.375 150.753906 88.046875 150.753906 85.167969 C 150.753906 82.289062 148.425781 79.960938 145.546875 79.960938 Z M 145.546875 79.960938 " fill-opacity="1" fill-rule="nonzero"/><path fill="#a6a6a6" d="M 145.648438 48.542969 L 52.929688 48.542969 C 50.050781 48.542969 47.722656 50.875 47.722656 53.75 C 47.722656 56.628906 50.050781 58.960938 52.929688 58.960938 L 145.648438 58.960938 C 148.527344 58.960938 150.855469 56.628906 150.855469 53.75 C 150.84375 50.875 148.511719 48.542969 145.648438 48.542969 Z M 145.648438 48.542969 " fill-opacity="1" fill-rule="nonzero"/><g clip-path="url(#097dea4f34)"><path fill="#a6a6a6" d="M 202.378906 191.179688 C 202.410156 191.816406 202.4375 192.46875 202.4375 193.117188 C 202.4375 213.195312 186.105469 229.527344 166.03125 229.527344 C 145.953125 229.527344 129.621094 213.195312 129.621094 193.117188 C 129.621094 173.042969 145.953125 156.710938 166.03125 156.710938 C 175.503906 156.710938 184.140625 160.355469 190.632812 166.300781 L 198.011719 158.925781 C 193.644531 154.84375 188.636719 151.675781 183.214844 149.535156 L 183.214844 5.265625 C 183.214844 2.386719 180.886719 0.0585938 178.007812 0.0585938 L 21.558594 0.0585938 C 18.679688 0.0585938 16.351562 2.386719 16.351562 5.265625 L 16.351562 219.226562 C 16.351562 222.105469 18.679688 224.433594 21.558594 224.433594 L 131.226562 224.433594 C 131.777344 225.042969 132.34375 225.648438 132.933594 226.226562 C 141.773438 235.066406 153.53125 239.941406 166.042969 239.941406 C 178.554688 239.941406 190.300781 235.066406 199.15625 226.226562 C 207.992188 217.390625 212.867188 205.628906 212.867188 193.117188 C 212.867188 189.328125 212.417969 185.625 211.550781 182.039062 Z M 26.75 214.019531 L 26.75 10.472656 L 172.800781 10.472656 L 172.800781 146.789062 C 170.570312 146.46875 168.316406 146.296875 166.03125 146.296875 C 153.519531 146.296875 141.773438 151.171875 132.921875 160.007812 C 124.082031 168.847656 119.207031 180.605469 119.207031 193.117188 C 119.207031 200.496094 120.902344 207.613281 124.113281 214.019531 Z M 26.75 214.019531 " fill-opacity="1" fill-rule="nonzero"/></g><g clip-path="url(#f97e07ccaf)"><path fill="#a6a6a6" d="M 221.269531 153.976562 C 218.898438 151.605469 215.035156 151.605469 212.664062 153.976562 L 166.914062 199.730469 L 153.546875 186.363281 C 151.175781 183.992188 147.3125 183.992188 144.941406 186.363281 C 142.570312 188.734375 142.570312 192.597656 144.941406 194.96875 L 166.914062 216.941406 L 221.269531 162.582031 C 223.644531 160.199219 223.644531 156.351562 221.269531 153.976562 Z M 221.269531 153.976562 " fill-opacity="1" fill-rule="nonzero"/></g></svg>