<svg xmlns="http://www.w3.org/2000/svg" xmlns:xlink="http://www.w3.org/1999/xlink" width="320" zoomAndPan="magnify" viewBox="0 0 240 239.999995" height="320" preserveAspectRatio="xMidYMid meet" version="1.0"><path fill="#a6a6a6" d="M 148.824219 168.632812 C 148.125 168.632812 147.460938 168.472656 146.839844 168.144531 L 119.996094 154.03125 L 93.152344 168.144531 C 92.433594 168.523438 91.667969 168.683594 90.855469 168.625 C 90.046875 168.566406 89.3125 168.296875 88.652344 167.820312 C 87.996094 167.34375 87.515625 166.726562 87.207031 165.972656 C 86.902344 165.222656 86.816406 164.445312 86.957031 163.644531 L 92.082031 133.75 L 70.367188 112.585938 C 69.785156 112.019531 69.394531 111.339844 69.203125 110.550781 C 69.007812 109.761719 69.035156 108.980469 69.285156 108.207031 C 69.535156 107.433594 69.972656 106.785156 70.59375 106.261719 C 71.214844 105.738281 71.929688 105.417969 72.730469 105.300781 L 102.746094 100.9375 L 116.164062 73.746094 C 116.261719 73.582031 116.371094 73.421875 116.488281 73.269531 C 116.609375 73.117188 116.734375 72.972656 116.875 72.839844 C 117.011719 72.703125 117.15625 72.578125 117.308594 72.460938 C 117.460938 72.347656 117.625 72.242188 117.789062 72.144531 C 117.957031 72.050781 118.128906 71.964844 118.308594 71.890625 C 118.488281 71.820312 118.667969 71.757812 118.855469 71.707031 C 119.039062 71.660156 119.230469 71.621094 119.421875 71.597656 C 119.609375 71.574219 119.804688 71.558594 119.996094 71.558594 C 120.1875 71.558594 120.378906 71.574219 120.570312 71.597656 C 120.761719 71.621094 120.949219 71.660156 121.136719 71.707031 C 121.320312 71.757812 121.503906 71.820312 121.683594 71.890625 C 121.859375 71.964844 122.03125 72.050781 122.199219 72.144531 C 122.367188 72.242188 122.527344 72.347656 122.679688 72.460938 C 122.835938 72.578125 122.980469 72.703125 123.117188 72.839844 C 123.253906 72.972656 123.382812 73.117188 123.5 73.269531 C 123.621094 73.421875 123.726562 73.582031 123.824219 73.746094 L 137.246094 100.9375 L 167.257812 105.300781 C 168.0625 105.417969 168.777344 105.738281 169.398438 106.261719 C 170.019531 106.785156 170.453125 107.433594 170.707031 108.207031 C 170.957031 108.980469 170.984375 109.761719 170.789062 110.550781 C 170.59375 111.339844 170.207031 112.019531 169.625 112.585938 L 147.910156 133.753906 L 153.035156 163.644531 C 153.085938 163.949219 153.105469 164.257812 153.089844 164.570312 C 153.078125 164.878906 153.027344 165.183594 152.945312 165.484375 C 152.867188 165.785156 152.753906 166.074219 152.609375 166.347656 C 152.464844 166.625 152.289062 166.878906 152.089844 167.117188 C 151.890625 167.355469 151.667969 167.570312 151.417969 167.757812 C 151.171875 167.945312 150.90625 168.105469 150.625 168.238281 C 150.34375 168.367188 150.050781 168.46875 149.746094 168.535156 C 149.445312 168.601562 149.136719 168.632812 148.824219 168.632812 Z M 119.996094 144.9375 C 120.699219 144.9375 121.359375 145.097656 121.980469 145.425781 L 143.15625 156.558594 L 139.109375 132.980469 C 138.992188 132.289062 139.042969 131.609375 139.257812 130.941406 C 139.476562 130.273438 139.835938 129.691406 140.339844 129.203125 L 157.46875 112.507812 L 133.796875 109.066406 C 133.101562 108.964844 132.46875 108.707031 131.898438 108.292969 C 131.332031 107.882812 130.890625 107.359375 130.582031 106.730469 L 119.996094 85.28125 L 109.410156 106.730469 C 109.097656 107.363281 108.660156 107.882812 108.089844 108.296875 C 107.523438 108.710938 106.890625 108.96875 106.195312 109.070312 L 82.523438 112.507812 L 99.652344 129.203125 C 100.152344 129.695312 100.515625 130.273438 100.730469 130.941406 C 100.949219 131.609375 101 132.292969 100.878906 132.984375 L 96.835938 156.558594 L 118.007812 145.429688 C 118.628906 145.101562 119.292969 144.9375 119.996094 144.9375 Z M 119.996094 144.9375 " fill-opacity="1" fill-rule="nonzero"/><path fill="#a6a6a6" d="M 119.996094 239.558594 C 119.589844 239.558594 119.195312 239.5 118.808594 239.386719 C 67.085938 224.417969 34.78125 201.023438 22.792969 169.851562 C 8.625 133.023438 26.625 95.054688 38.613281 75.699219 C 39.046875 75.003906 39.410156 74.269531 39.699219 73.503906 C 39.992188 72.734375 40.207031 71.945312 40.34375 71.136719 C 40.484375 70.328125 40.542969 69.511719 40.523438 68.691406 C 40.503906 67.871094 40.40625 67.058594 40.226562 66.257812 C 40.050781 65.457031 39.800781 64.679688 39.472656 63.925781 C 39.144531 63.171875 38.746094 62.457031 38.28125 61.78125 C 37.816406 61.105469 37.289062 60.480469 36.703125 59.90625 C 36.117188 59.332031 35.480469 58.820312 34.792969 58.367188 L 23.6875 50.964844 C 23.445312 50.804688 23.222656 50.617188 23.019531 50.414062 C 22.816406 50.207031 22.632812 49.980469 22.476562 49.738281 C 22.316406 49.496094 22.183594 49.238281 22.078125 48.96875 C 21.972656 48.695312 21.894531 48.417969 21.847656 48.132812 C 21.796875 47.847656 21.777344 47.558594 21.789062 47.265625 C 21.796875 46.976562 21.835938 46.691406 21.90625 46.410156 C 21.972656 46.125 22.070312 45.855469 22.195312 45.589844 C 22.316406 45.328125 22.464844 45.082031 22.640625 44.847656 L 48.261719 10.691406 C 48.445312 10.445312 48.652344 10.222656 48.882812 10.023438 C 49.113281 9.820312 49.363281 9.648438 49.632812 9.5 C 49.902344 9.355469 50.183594 9.238281 50.476562 9.152344 C 50.769531 9.066406 51.066406 9.011719 51.375 8.992188 C 51.679688 8.96875 51.984375 8.980469 52.285156 9.023438 C 52.589844 9.066406 52.882812 9.144531 53.167969 9.25 C 53.457031 9.359375 53.726562 9.496094 53.984375 9.660156 C 54.242188 9.824219 54.480469 10.015625 54.695312 10.234375 C 54.722656 10.253906 62.777344 17.523438 85.835938 17.523438 C 86.058594 17.523438 108.9375 17.28125 116.175781 2.800781 C 116.273438 2.636719 116.382812 2.480469 116.5 2.328125 C 116.621094 2.179688 116.746094 2.035156 116.882812 1.902344 C 117.019531 1.765625 117.164062 1.640625 117.320312 1.527344 C 117.472656 1.410156 117.632812 1.304688 117.796875 1.210938 C 117.964844 1.117188 118.136719 1.035156 118.316406 0.960938 C 118.492188 0.886719 118.675781 0.828125 118.859375 0.777344 C 119.042969 0.730469 119.230469 0.691406 119.421875 0.667969 C 119.613281 0.644531 119.804688 0.632812 119.996094 0.632812 C 120.1875 0.632812 120.378906 0.644531 120.566406 0.667969 C 120.757812 0.691406 120.945312 0.730469 121.132812 0.777344 C 121.316406 0.828125 121.5 0.886719 121.675781 0.960938 C 121.851562 1.035156 122.023438 1.117188 122.191406 1.210938 C 122.359375 1.304688 122.519531 1.410156 122.671875 1.527344 C 122.824219 1.640625 122.96875 1.765625 123.105469 1.902344 C 123.242188 2.035156 123.371094 2.179688 123.488281 2.328125 C 123.609375 2.480469 123.714844 2.636719 123.816406 2.800781 C 131.089844 17.351562 153.925781 17.523438 154.15625 17.523438 C 177.210938 17.523438 185.269531 10.253906 185.347656 10.179688 C 185.566406 9.972656 185.804688 9.792969 186.0625 9.636719 C 186.320312 9.480469 186.59375 9.351562 186.878906 9.253906 C 187.160156 9.152344 187.453125 9.082031 187.753906 9.042969 C 188.050781 9.003906 188.351562 9 188.652344 9.023438 C 188.953125 9.046875 189.246094 9.101562 189.535156 9.1875 C 189.824219 9.273438 190.101562 9.386719 190.367188 9.53125 C 190.632812 9.675781 190.878906 9.84375 191.109375 10.039062 C 191.339844 10.234375 191.546875 10.449219 191.730469 10.691406 L 217.351562 44.847656 C 217.523438 45.082031 217.671875 45.328125 217.796875 45.589844 C 217.921875 45.855469 218.015625 46.125 218.085938 46.410156 C 218.152344 46.691406 218.191406 46.976562 218.203125 47.265625 C 218.210938 47.558594 218.191406 47.847656 218.144531 48.132812 C 218.09375 48.417969 218.019531 48.695312 217.910156 48.96875 C 217.804688 49.238281 217.675781 49.496094 217.515625 49.738281 C 217.359375 49.980469 217.175781 50.207031 216.972656 50.414062 C 216.769531 50.621094 216.546875 50.804688 216.304688 50.964844 L 205.199219 58.367188 C 204.511719 58.820312 203.875 59.332031 203.289062 59.90625 C 202.703125 60.480469 202.175781 61.105469 201.710938 61.78125 C 201.242188 62.457031 200.847656 63.171875 200.519531 63.921875 C 200.191406 64.675781 199.941406 65.453125 199.765625 66.253906 C 199.585938 67.058594 199.488281 67.867188 199.46875 68.6875 C 199.449219 69.511719 199.507812 70.324219 199.648438 71.132812 C 199.785156 71.945312 200 72.730469 200.292969 73.5 C 200.582031 74.265625 200.945312 75 201.378906 75.699219 C 213.367188 95.054688 231.367188 133.023438 217.199219 169.851562 C 205.210938 201.023438 172.90625 224.417969 121.183594 239.390625 C 120.792969 239.503906 120.398438 239.558594 119.996094 239.558594 Z M 32.179688 46.363281 L 39.53125 51.261719 C 40.101562 51.636719 40.652344 52.039062 41.183594 52.46875 C 41.714844 52.898438 42.226562 53.351562 42.714844 53.832031 C 43.203125 54.308594 43.667969 54.8125 44.105469 55.335938 C 44.546875 55.859375 44.960938 56.402344 45.347656 56.964844 C 45.734375 57.527344 46.09375 58.109375 46.425781 58.707031 C 46.753906 59.304688 47.058594 59.917969 47.328125 60.546875 C 47.601562 61.171875 47.839844 61.8125 48.050781 62.460938 C 48.261719 63.113281 48.441406 63.769531 48.585938 64.4375 C 48.734375 65.105469 48.847656 65.78125 48.929688 66.457031 C 49.007812 67.136719 49.058594 67.820312 49.074219 68.503906 C 49.089844 69.183594 49.070312 69.867188 49.019531 70.550781 C 48.96875 71.230469 48.886719 71.910156 48.769531 72.582031 C 48.65625 73.257812 48.507812 73.921875 48.328125 74.582031 C 48.144531 75.242188 47.933594 75.890625 47.691406 76.53125 C 47.449219 77.167969 47.175781 77.792969 46.871094 78.40625 C 46.566406 79.019531 46.234375 79.617188 45.875 80.195312 C 34.71875 98.203125 17.921875 133.402344 30.761719 166.785156 C 41.652344 195.09375 71.671875 216.644531 119.996094 230.839844 C 168.316406 216.644531 198.339844 195.097656 209.226562 166.785156 C 222.070312 133.402344 205.273438 98.203125 194.117188 80.195312 C 193.753906 79.613281 193.421875 79.019531 193.121094 78.40625 C 192.816406 77.792969 192.542969 77.167969 192.300781 76.527344 C 192.054688 75.890625 191.84375 75.242188 191.664062 74.582031 C 191.484375 73.921875 191.335938 73.253906 191.21875 72.582031 C 191.101562 71.90625 191.019531 71.230469 190.96875 70.546875 C 190.917969 69.867188 190.902344 69.183594 190.917969 68.5 C 190.933594 67.816406 190.980469 67.136719 191.0625 66.457031 C 191.144531 65.777344 191.257812 65.105469 191.402344 64.4375 C 191.550781 63.769531 191.730469 63.109375 191.9375 62.460938 C 192.148438 61.808594 192.390625 61.171875 192.660156 60.542969 C 192.933594 59.917969 193.234375 59.304688 193.566406 58.707031 C 193.898438 58.109375 194.257812 57.527344 194.644531 56.964844 C 195.03125 56.402344 195.445312 55.859375 195.882812 55.335938 C 196.324219 54.8125 196.789062 54.308594 197.277344 53.832031 C 197.765625 53.351562 198.273438 52.898438 198.804688 52.46875 C 199.339844 52.039062 199.890625 51.636719 200.460938 51.261719 L 207.808594 46.363281 L 187.382812 19.128906 C 182.359375 22.042969 172.160156 26.0625 154.15625 26.0625 C 153.128906 26.0625 131.542969 25.890625 119.996094 12.378906 C 108.449219 25.890625 86.859375 26.0625 85.835938 26.0625 C 67.832031 26.0625 57.628906 22.042969 52.605469 19.128906 Z M 32.179688 46.363281 " fill-opacity="1" fill-rule="nonzero"/><path fill="#a6a6a6" d="M 119.996094 221.734375 C 119.566406 221.734375 119.148438 221.671875 118.742188 221.546875 C 75.265625 208.175781 48.347656 188.71875 38.734375 163.71875 C 27.214844 133.777344 42.8125 101.355469 53.132812 84.691406 C 53.59375 83.953125 54.023438 83.195312 54.417969 82.417969 C 54.8125 81.640625 55.171875 80.847656 55.496094 80.039062 C 55.820312 79.230469 56.109375 78.410156 56.363281 77.574219 C 56.613281 76.742188 56.828125 75.898438 57.007812 75.046875 C 57.183594 74.191406 57.324219 73.332031 57.429688 72.46875 C 57.53125 71.601562 57.59375 70.734375 57.621094 69.863281 C 57.648438 68.992188 57.632812 68.121094 57.582031 67.253906 C 57.535156 66.382812 57.445312 65.515625 57.316406 64.65625 C 57.191406 63.792969 57.027344 62.9375 56.824219 62.089844 C 56.621094 61.242188 56.382812 60.40625 56.109375 59.578125 C 55.832031 58.753906 55.519531 57.941406 55.171875 57.140625 C 54.824219 56.339844 54.445312 55.558594 54.027344 54.792969 C 53.613281 54.027344 53.164062 53.28125 52.679688 52.554688 C 52.199219 51.832031 51.6875 51.128906 51.140625 50.445312 C 50.597656 49.765625 50.027344 49.109375 49.425781 48.480469 C 48.824219 47.847656 48.195312 47.246094 47.539062 46.671875 C 47.136719 46.316406 46.8125 45.898438 46.566406 45.421875 C 46.320312 44.945312 46.167969 44.4375 46.113281 43.902344 C 46.058594 43.371094 46.105469 42.84375 46.246094 42.324219 C 46.390625 41.808594 46.625 41.332031 46.945312 40.902344 L 53.410156 32.285156 C 53.679688 31.929688 53.992188 31.625 54.355469 31.367188 C 54.71875 31.109375 55.109375 30.914062 55.535156 30.78125 C 55.957031 30.648438 56.390625 30.578125 56.835938 30.578125 C 57.28125 30.582031 57.714844 30.648438 58.136719 30.785156 C 67.171875 33.492188 76.40625 34.765625 85.835938 34.601562 C 91.445312 34.519531 96.945312 33.714844 102.34375 32.191406 C 107.742188 30.667969 112.851562 28.476562 117.675781 25.613281 C 118.023438 25.390625 118.390625 25.21875 118.785156 25.101562 C 119.179688 24.988281 119.585938 24.929688 119.996094 24.929688 C 120.40625 24.929688 120.808594 24.988281 121.203125 25.101562 C 121.597656 25.21875 121.96875 25.390625 122.3125 25.613281 C 127.136719 28.476562 132.25 30.667969 137.644531 32.191406 C 143.042969 33.714844 148.546875 34.519531 154.15625 34.601562 C 163.585938 34.765625 172.816406 33.492188 181.851562 30.785156 C 182.277344 30.648438 182.710938 30.578125 183.152344 30.578125 C 183.597656 30.578125 184.03125 30.644531 184.457031 30.777344 C 184.878906 30.914062 185.273438 31.109375 185.632812 31.367188 C 185.996094 31.625 186.3125 31.929688 186.578125 32.285156 L 193.042969 40.902344 C 193.363281 41.332031 193.597656 41.808594 193.742188 42.324219 C 193.886719 42.84375 193.929688 43.371094 193.875 43.902344 C 193.820312 44.4375 193.667969 44.945312 193.421875 45.421875 C 193.175781 45.898438 192.851562 46.316406 192.449219 46.671875 C 191.792969 47.246094 191.167969 47.847656 190.566406 48.480469 C 189.964844 49.109375 189.390625 49.765625 188.847656 50.445312 C 188.304688 51.128906 187.789062 51.832031 187.308594 52.558594 C 186.828125 53.28125 186.378906 54.027344 185.960938 54.792969 C 185.542969 55.558594 185.164062 56.34375 184.816406 57.140625 C 184.46875 57.941406 184.15625 58.753906 183.882812 59.578125 C 183.605469 60.40625 183.367188 61.242188 183.164062 62.089844 C 182.960938 62.9375 182.796875 63.792969 182.671875 64.65625 C 182.542969 65.515625 182.457031 66.382812 182.40625 67.253906 C 182.355469 68.125 182.34375 68.992188 182.367188 69.863281 C 182.394531 70.734375 182.457031 71.605469 182.5625 72.46875 C 182.664062 73.335938 182.804688 74.195312 182.980469 75.046875 C 183.160156 75.898438 183.375 76.742188 183.628906 77.578125 C 183.878906 78.410156 184.167969 79.230469 184.492188 80.039062 C 184.816406 80.847656 185.175781 81.640625 185.570312 82.417969 C 185.964844 83.195312 186.394531 83.953125 186.855469 84.695312 C 197.179688 101.355469 212.773438 133.773438 201.257812 163.71875 C 191.640625 188.71875 164.722656 208.175781 121.25 221.546875 C 120.839844 221.671875 120.421875 221.734375 119.996094 221.734375 Z M 56.027344 43.03125 C 56.730469 43.796875 57.40625 44.585938 58.046875 45.402344 C 58.6875 46.21875 59.292969 47.0625 59.863281 47.929688 C 60.4375 48.796875 60.972656 49.683594 61.472656 50.59375 C 61.972656 51.503906 62.433594 52.433594 62.855469 53.382812 C 63.28125 54.332031 63.664062 55.292969 64.007812 56.273438 C 64.355469 57.253906 64.660156 58.246094 64.921875 59.25 C 65.1875 60.253906 65.410156 61.265625 65.59375 62.289062 C 65.773438 63.3125 65.914062 64.339844 66.011719 65.375 C 66.109375 66.40625 66.164062 67.445312 66.179688 68.480469 C 66.191406 69.519531 66.164062 70.558594 66.089844 71.59375 C 66.019531 72.628906 65.90625 73.660156 65.75 74.6875 C 65.597656 75.714844 65.398438 76.734375 65.160156 77.746094 C 64.921875 78.753906 64.644531 79.753906 64.324219 80.742188 C 64.003906 81.730469 63.644531 82.703125 63.246094 83.660156 C 62.84375 84.621094 62.40625 85.5625 61.933594 86.484375 C 61.457031 87.40625 60.941406 88.308594 60.394531 89.191406 C 50.90625 104.503906 36.511719 134.152344 46.703125 160.652344 C 55.238281 182.851562 79.898438 200.457031 119.996094 212.992188 C 160.09375 200.457031 184.75 182.847656 193.289062 160.652344 C 203.480469 134.15625 189.085938 104.507812 179.597656 89.191406 C 179.046875 88.3125 178.535156 87.410156 178.058594 86.488281 C 177.582031 85.5625 177.144531 84.621094 176.746094 83.664062 C 176.347656 82.707031 175.988281 81.730469 175.667969 80.746094 C 175.347656 79.757812 175.070312 78.757812 174.832031 77.746094 C 174.59375 76.734375 174.394531 75.714844 174.238281 74.691406 C 174.085938 73.664062 173.972656 72.632812 173.898438 71.59375 C 173.828125 70.558594 173.800781 69.523438 173.8125 68.484375 C 173.828125 67.445312 173.882812 66.410156 173.980469 65.375 C 174.078125 64.339844 174.21875 63.3125 174.398438 62.289062 C 174.582031 61.269531 174.804688 60.253906 175.066406 59.25 C 175.332031 58.246094 175.636719 57.253906 175.980469 56.273438 C 176.328125 55.296875 176.710938 54.332031 177.136719 53.382812 C 177.558594 52.433594 178.019531 51.503906 178.519531 50.59375 C 179.019531 49.683594 179.554688 48.796875 180.125 47.929688 C 180.699219 47.0625 181.304688 46.21875 181.945312 45.402344 C 182.585938 44.585938 183.257812 43.796875 183.964844 43.03125 L 181.53125 39.789062 C 172.558594 42.136719 163.429688 43.253906 154.15625 43.140625 C 148.183594 43.066406 142.304688 42.273438 136.527344 40.761719 C 130.75 39.25 125.238281 37.0625 119.996094 34.203125 C 114.753906 37.0625 109.242188 39.25 103.460938 40.761719 C 97.683594 42.273438 91.808594 43.066406 85.835938 43.140625 C 76.558594 43.253906 67.433594 42.136719 58.457031 39.789062 Z M 56.027344 43.03125 " fill-opacity="1" fill-rule="nonzero"/></svg>